<?xml version="1.0" encoding="UTF-8" standalone="no"?><!DOCTYPE svg PUBLIC "-//W3C//DTD SVG 1.1//EN" "http://www.w3.org/Graphics/SVG/1.1/DTD/svg11.dtd"><svg width="100%" height="100%" viewBox="0 0 280 62" version="1.1" xmlns="http://www.w3.org/2000/svg" xmlns:xlink="http://www.w3.org/1999/xlink" xml:space="preserve" xmlns:serif="http://www.serif.com/" style="fill-rule:evenodd;clip-rule:evenodd;stroke-linejoin:round;stroke-miterlimit:2;"><g id="Sunset"><path d="M280,39.051l-280,-0l-0,17.535c-0,2.602 2.112,4.714 4.714,4.714l270.572,0c2.602,0 4.714,-2.112 4.714,-4.714l0,-17.535Z" style="fill:#102448;"/><path d="M-0,51.412c-0,2.049 1.664,3.713 3.713,3.713l272.574,-0c2.049,-0 3.713,-1.664 3.713,-3.713l-0,-47.699c-0,-2.049 -1.664,-3.713 -3.713,-3.713l-272.574,0c-2.049,0 -3.713,1.664 -3.713,3.713l-0,47.699Z" style="fill:#e8964f;"/><path d="M81.538,44.91c6.273,-24.928 30.083,-43.497 58.462,-43.497c28.379,0 52.189,18.569 58.462,43.497l-116.924,-0Z" style="fill:#ffdf51;"/><path d="M82.691,44.91l-1.153,-0c6.273,-24.928 30.083,-43.497 58.462,-43.497c28.379,0 52.189,18.569 58.462,43.497l-1.153,-0c-7.677,-22.92 -30.446,-39.558 -57.309,-39.558c-26.863,0 -49.632,16.638 -57.309,39.558Z" style="fill:#fff75a;"/><path d="M167.84,44.91c19.685,-4.609 30.729,-19.161 35.867,-9.072c1.004,-1.815 4.13,-1.529 5.001,-0.515c2.934,-6.939 15.179,-10.777 21.212,-6.561c5.138,-14.598 21.975,-12.483 39.688,-4.552c2.332,-3.364 8.979,-4.394 10.392,-3.783l0,24.483l-112.16,-0Zm-65.804,-1.61l-102.036,0.087l-0,-26.308c8.684,-13.151 25.841,-2.09 29.61,15.922c2.376,-3.008 4.355,-2.191 6.074,1.149c8.024,-16.982 21.916,-15.025 24.866,-0c4.339,-2.946 8.123,-0.669 11.695,3.611c2.211,-4.344 6.786,3.748 29.791,5.539Z" style="fill:#ffd0a6;"/><path d="M185.999,40.447c5.578,-1.713 13.194,-10.284 16.447,-2.167c1.924,-1.461 3.81,-1.646 5.646,-0.131c0.476,-0.842 1.012,-1.458 1.838,-0.985c4.528,-8.793 16.439,-10.301 23.21,-3.742c2.576,-13.762 15.968,-13.06 22.65,-5.86l0,11.736c-2.742,-0.525 -5.432,-0.703 -7.911,0.525c-1.283,-1.081 -2.252,-1.042 -2.922,0.066c-4.53,-1.887 -8.524,-2.305 -11.391,0.361c-3.474,-1.264 -6.275,-0.958 -8.699,0.23c-3.859,-1.175 -7.762,-1.831 -11.884,0.066c-1.884,-1.17 -3.411,-1.085 -4.595,0.197c-1.833,-1.396 -3.858,-1.834 -6.303,-0.165c-5.428,-1.936 -8.918,-0.082 -16.086,-0.131Z" style="fill:#ffe6b8;"/><path d="M79.58,40.475c-3.522,-0.53 -5.725,-2.683 -6.67,-1.024c-0.866,-1.003 -1.699,-1.238 -2.495,-0.631c-3.235,-3.797 -6.604,-5.105 -10.19,-2.389c-5.12,-9.42 -15.434,-9.639 -19.696,1.181c-1.061,-1.709 -2.082,-1.135 -3.073,1.077c-1.422,-1.983 -2.954,-3.069 -4.727,-2.18c-1.088,-2.44 -2.642,-2.312 -4.57,-0.131l-1.628,4.044c1.812,-0.479 3.624,-0.956 5.436,0.053c1.411,-1.003 3.378,-1.04 6.119,0.268c1.667,-1.514 3.515,-2.358 6.093,-0.504c3.344,-1.749 7.493,-1.18 12.028,0.504c4.515,-1.564 9.124,-1.939 13.919,-0c0.937,-0.474 1.873,-0.408 2.81,0.31c2.027,-1.35 4.256,-0.036 6.644,-0.578Z" style="fill:#ffe6b8;"/><path d="M-0,41.591l280,-0l0,9.821c0,2.049 -1.664,3.713 -3.713,3.713l-272.574,-0c-2.049,-0 -3.713,-1.664 -3.713,-3.713l-0,-9.821Z" style="fill:#2b4f90;"/><path d="M73.2,41.591l128.629,-0c6.782,3.162 -1.717,4.541 -15.425,5.313c0.635,2.503 -2.11,3.017 -3.899,2.886c-2.323,-0.17 -3.624,0.056 -4.646,0.217c-2.563,0.402 -5.463,0.279 -8.101,0.266c-6.513,-0.032 -14.48,-0.019 -19.031,-0.669c-2.846,-0.407 -3.997,-0.345 -5.258,-0.024c-4.845,1.232 -9.638,1.477 -14.42,1.504c-0.517,0.003 -0.254,0.395 0.061,0.414l4.522,-0.051c30.197,-0.427 25.949,1.296 -0.4,2.157c-26.496,0.867 -43.504,0.067 -46.716,-3.229c-10.171,0.064 -16.592,-0.603 -16.135,-2.612c-19.713,-2.403 -20.258,-3.801 -3.145,-4.274c-0.76,-0.681 1.001,-1.303 3.964,-1.898Z" style="fill:#4e78c4;"/><path d="M76.873,45.635c1.174,-0.24 2.478,-0.168 4.213,0.046c1.125,0.139 2.614,-0.116 4.06,-0.073c1.367,0.04 2.653,0.194 3.602,-0.014c1.319,-0.288 2.376,-0.472 3.792,-0.407c1.823,0.084 3.588,0.463 5.399,0.384c-1.209,0.287 -2.61,0.342 -4.036,0.26c-2.041,-0.117 -2.933,0.029 -4.005,0.312c-1.972,0.52 -5.472,-0.025 -6.786,0.048c-2.245,0.126 -3.8,-0.5 -6.239,-0.556Zm10.533,2.723c2.892,-0.121 4.713,-0.354 7.719,-0.598c2.6,-0.211 6.044,-0.507 7.968,-0c1.259,0.332 2.211,0.698 3.569,0.849c3.765,0.418 8.028,-0.021 12.478,0.497c-3.412,0.327 -7.214,0.391 -10.293,0.491c-2.408,0.078 -3.908,0.089 -4.973,-0.239c-1.724,-0.531 -2.923,-0.691 -4.676,-0.708c-4.025,-0.039 -8.242,0.009 -11.792,-0.292Zm53.975,-2.586c-1.985,0.184 -3.83,0.282 -5.06,0c-1.195,-0.274 -2.429,-0.199 -3.844,0c-0.972,0.137 -1.846,-0.047 -2.823,-0.176c-1.019,-0.134 -2.311,-0.388 -3.188,-0.422c1.747,-0.075 3.897,0.185 5.872,-0.215c1.527,-0.31 2.222,-0.196 4.163,0.215c1.21,0.256 3.103,0.28 4.88,0.598Zm14.941,1.708c2.598,-0.248 6.344,-1.07 8.718,-1.708c1.648,-0.443 2.933,-0.186 4.291,0c1.088,0.149 2.398,0.383 3.328,0.879c1.874,1.002 4.223,1.183 7.655,1.369c-4.303,0.471 -6.94,-0.011 -8.239,-0.54c-1.879,-0.765 -3.996,-1.106 -5.284,-0.758c-1.395,0.377 -3.097,0.579 -4.187,0.479c-2.622,-0.24 -3.797,0.451 -6.282,0.279Z" style="fill:#2b4f90;"/><g><g><path d="M252.228,61.3c1.33,-7.278 2.079,-14.751 2.749,-22.249l25.023,-0l0,17.535c0,2.602 -2.112,4.714 -4.714,4.714l-23.058,-0Z" style="fill:#6c3a11;"/><path d="M252.491,59.816c1.169,-6.809 1.861,-13.776 2.486,-20.765l25.023,-0l0,17.535c0,2.602 -2.112,4.714 -4.714,4.714l-9.42,0l0.617,-3.378c-0.935,0.763 -1.681,1.255 -2.904,1.841c-1.696,-1.136 -3.271,-3.09 -4.309,-4.883c-1.882,2.508 -4.224,3.965 -6.779,4.936Z" style="fill:#50280b;"/><path d="M253.172,36.232c0.284,7.737 0.38,15.315 -1.766,20.97c-0.113,0.27 -0.057,0.582 0.142,0.797c0.199,0.216 0.505,0.296 0.784,0.205c2.748,-0.952 5.14,-2.745 6.995,-5.805c1.144,1.903 2.361,3.733 3.873,5.267c0.188,0.185 0.448,0.277 0.71,0.251c0.263,-0.025 0.5,-0.166 0.648,-0.384c1.171,-1.738 2.164,-3.565 3.017,-5.462c1.375,1.744 2.812,3.468 4.413,5.137c0.182,0.189 0.446,0.275 0.705,0.231c0.259,-0.045 0.479,-0.214 0.588,-0.453c0.897,-2.025 1.536,-4.265 1.967,-6.68c1.727,1.34 3.354,2.614 4.752,3.735l0,-22.446l-2.69,-4.637l-24.343,4.021l0.205,5.253Z" style="fill:#a9713b;"/><path d="M262.565,56.986c2.077,-5.343 2.915,-11.07 2.564,-17.166c-0.452,1.111 -1.042,2.084 -1.75,2.938c-0.17,0.199 -0.418,0.316 -0.68,0.32c-0.262,0.005 -0.513,-0.102 -0.691,-0.295c-1.274,-1.368 -2.733,-2.797 -4.215,-4.235c-1.382,1.997 -2.853,3.873 -4.478,5.544c0.03,-2.553 -0.045,-5.197 -0.143,-7.86l-0.205,-5.253l24.343,-4.021l2.69,4.637l-0,22.446c-1.398,-1.121 -3.025,-2.395 -4.752,-3.735c-0.431,2.415 -1.07,4.655 -1.967,6.68c-0.109,0.239 -0.329,0.408 -0.588,0.453c-0.259,0.044 -0.523,-0.042 -0.705,-0.231c-1.601,-1.669 -3.038,-3.393 -4.413,-5.137c-0.853,1.897 -1.846,3.724 -3.017,5.462c-0.148,0.218 -0.385,0.359 -0.648,0.384c-0.262,0.026 -0.522,-0.066 -0.71,-0.251c-0.217,-0.221 -0.429,-0.448 -0.635,-0.68Z" style="fill:#7d5027;"/><path d="M250.258,17.52c1.057,7.343 2.035,14.751 1.446,23.45c-0.018,0.256 0.105,0.501 0.321,0.64c0.216,0.138 0.49,0.148 0.715,0.026c2.083,-1.206 3.668,-3.134 4.905,-5.569c1.559,1.865 3.118,3.565 4.678,4.806c0.232,0.177 0.532,0.24 0.817,0.172c0.284,-0.068 0.523,-0.26 0.651,-0.523c0.785,-1.638 1.398,-3.319 1.896,-5.029c1.567,1.577 3.175,3.099 4.96,4.384c0.23,0.163 0.519,0.217 0.791,0.148c0.273,-0.068 0.502,-0.252 0.628,-0.504c0.973,-2.008 1.64,-4.219 2.157,-6.531c1.822,1.158 3.736,2.453 5.777,3.939l0,-7.386c-1.795,-6.607 -5.104,-13.623 -7.337,-17.809l-22.405,5.786Z" style="fill:#915421;"/><path d="M261.715,40.366c1.317,-5.092 1.706,-10.301 1.002,-15.646c-0.473,0.866 -1.018,1.59 -1.6,2.238c-2.147,-1.616 -4.146,-3.454 -6.074,-5.398c-0.964,2.044 -2.185,3.933 -3.569,5.726c-0.307,-3.336 -0.754,-6.557 -1.216,-9.766l22.405,-5.786c2.233,4.186 5.542,11.202 7.337,17.809l0,7.386c-2.041,-1.486 -3.955,-2.781 -5.777,-3.939c-0.517,2.312 -1.184,4.523 -2.157,6.531c-0.126,0.252 -0.355,0.436 -0.628,0.504c-0.272,0.069 -0.561,0.015 -0.791,-0.148c-1.785,-1.285 -3.393,-2.807 -4.96,-4.384c-0.498,1.71 -1.111,3.391 -1.896,5.029c-0.128,0.263 -0.367,0.455 -0.651,0.523c-0.285,0.068 -0.585,0.005 -0.817,-0.172c-0.203,-0.161 -0.406,-0.33 -0.608,-0.507Z" style="fill:#6b3b16;"/><path d="M243.611,0c3.398,8.514 5.749,17.132 6.282,25.932c0.011,0.207 0.158,0.381 0.36,0.427c0.201,0.047 0.409,-0.046 0.509,-0.227c1.296,-2.339 3.723,-6.725 3.723,-6.725c0,0 3.97,3.521 5.716,5.069c0.188,0.167 0.445,0.234 0.69,0.18c0.245,-0.055 0.45,-0.223 0.55,-0.453c0.874,-2.005 2.769,-6.355 2.769,-6.355c0,0 3.137,2.764 4.824,4.25c0.231,0.204 0.549,0.278 0.846,0.196c0.297,-0.081 0.534,-0.306 0.629,-0.599c0.686,-2.105 1.949,-5.981 1.949,-5.981c0,0 2.764,3.061 4.168,4.616c0.111,0.123 0.288,0.164 0.442,0.1c0.153,-0.063 0.25,-0.217 0.242,-0.383c-0.82,-4.168 -5.666,-12.445 -9.366,-20.047l-24.333,0Z" style="fill:#a9713b;"/><path d="M259.476,23.834c0.397,-5.951 -0.199,-11.529 -2.053,-16.636c-0.656,1.325 -1.313,2.436 -1.969,3.324c-1.902,-0.522 -3.622,-1.408 -5.196,-2.585c-0.676,2.112 -1.352,4.336 -2.029,6.609c-1.112,-4.891 -2.698,-9.735 -4.618,-14.546l24.333,0c3.7,7.602 8.546,15.879 9.366,20.047c0.008,0.166 -0.089,0.32 -0.242,0.383c-0.154,0.064 -0.331,0.023 -0.442,-0.1l-4.168,-4.616l-1.949,5.981c-0.095,0.293 -0.332,0.518 -0.629,0.599c-0.297,0.082 -0.615,0.008 -0.846,-0.196l-4.824,-4.25l-2.769,6.355c-0.1,0.23 -0.305,0.398 -0.55,0.453c-0.245,0.054 -0.502,-0.013 -0.69,-0.18l-0.725,-0.642Z" style="fill:#7d5027;"/><path d="M270.312,4.704l-13.242,-3.105l-1.854,6.752c-0.077,0.278 -0.278,0.505 -0.545,0.613c-0.267,0.108 -0.569,0.085 -0.817,-0.062l-8.848,-5.233c-0.442,-1.226 -0.908,-2.448 -1.395,-3.669l24.333,0c0.756,1.553 1.56,3.135 2.368,4.704Z" style="fill:#915421;"/><path d="M253.909,0l14.035,0c0.756,1.553 1.56,3.135 2.368,4.704l-13.242,-3.105l-1.854,6.752c-0.077,0.278 -0.278,0.505 -0.545,0.613c-0.173,0.07 -0.361,0.085 -0.54,0.047c0.234,-3.06 0.193,-6.069 -0.222,-9.011Z" style="fill:#6b3b16;"/></g><g><path d="M267.182,11.524c-3.624,-3.336 -7.013,-7.236 -10.241,-11.524l19.671,0l-9.43,11.524Zm9.815,-11.524l3.003,0l0,20.221c-2.446,-1.099 -4.788,-2.452 -7.037,-4.023l4.034,-16.198Zm-59.708,7.34c0.546,-2.44 1.232,-4.886 2.057,-7.34l29.779,0c-0.003,4.638 -0.793,9.308 -2.196,13.847c-5.858,-2.261 -11.175,-3.226 -16.802,-5.046l15.44,8.935c-2.618,6.694 -6.507,12.989 -11.071,18.34l-9.901,-6.554l7.653,9.056c-2.216,2.34 -4.556,4.457 -6.963,6.296l-1.048,-1.062l-0.074,1.896c-0.921,0.665 -1.851,1.289 -2.785,1.869c-1.126,-2.552 -2.084,-5.113 -2.874,-7.682l4.452,-3.51l-5,1.628c-1.651,-5.997 -2.394,-12.039 -2.239,-18.127l10.568,-2.889l-10.346,-1.02c0.107,-1.211 0.249,-2.423 0.426,-3.637l2.135,-0.747l-1.691,-1.716l4.431,-0.948l-3.951,-1.589Zm-30.536,-7.34l17.586,0c-5.929,3.578 -12.543,6.129 -20.009,7.402c0.343,-2.72 1.141,-5.193 2.423,-7.402Z" style="fill:#a4c923;"/><path d="M185.975,5.125c0.683,-2.13 1.537,-3.869 2.602,-5.125l2.705,0l-5.307,5.125Zm34.097,32.199l-2.116,0.689c-1.651,-5.997 -2.394,-12.039 -2.239,-18.127l3.707,-1.013c-0.325,5.981 -0.007,12.163 0.648,18.451Zm-0.469,-20.986l-3.664,-0.361c0.107,-1.211 0.249,-2.423 0.426,-3.637l2.135,-0.747l-1.691,-1.716l3.816,-0.816c-0.475,2.384 -0.808,4.812 -1.022,7.277Zm1.093,-7.628l-3.407,-1.37c0.546,-2.44 1.232,-4.886 2.057,-7.34l3.896,0c-1.101,2.825 -1.935,5.733 -2.546,8.71Zm0.682,38.867c-1.126,-2.552 -2.084,-5.113 -2.874,-7.682l1.7,-1.341c0.331,2.989 0.733,6 1.174,9.023Z" style="fill:#b5de27;"/><path d="M230.127,8.801c1.181,-3.33 2.224,-5.966 3.658,-8.801l15.34,0c-0.003,4.638 -0.793,9.308 -2.196,13.847c-5.858,-2.261 -11.175,-3.226 -16.802,-5.046Zm-5.532,20.721l7.653,9.056c-2.216,2.34 -4.556,4.457 -6.963,6.296l-1.048,-1.062l-0.074,1.896c-0.921,0.665 -1.851,1.289 -2.785,1.869c1.807,-7.432 2.09,-12.451 3.217,-18.055Zm0,-0c1.652,-8.427 3.727,-15.631 5.532,-20.721l15.44,8.935c-2.618,6.694 -6.507,12.989 -11.071,18.34l-9.901,-6.554Zm-38.059,-23.715c2.915,-1.694 5.597,-3.622 8.022,-5.807l7.174,0c-4.791,2.421 -9.84,4.386 -15.196,5.807Zm72.579,-5.807l17.497,0l-0.23,0.281l-9.072,8.278l-8.195,-8.559Zm18.248,-0l2.637,0l0,18.433l-4.046,-2.574l1.409,-15.859Z" style="fill:#74a106;"/><path d="M224.211,44.462l-0.048,1.246c-0.921,0.665 -1.851,1.289 -2.785,1.869c0.968,-1.039 1.913,-2.077 2.833,-3.115Zm6.437,-7.777l1.6,1.893c-2.216,2.34 -4.556,4.457 -6.963,6.296l-0.759,-0.768c2.183,-2.476 4.226,-4.949 6.122,-7.421Zm12.158,-20.546l2.761,1.597c-2.618,6.694 -6.507,12.989 -11.071,18.34l-2.267,-1.5c4.512,-6.158 8.088,-12.304 10.577,-18.437Zm3.947,-16.139l2.372,0c-0.003,4.638 -0.793,9.308 -2.196,13.847c-0.974,-0.376 -1.933,-0.716 -2.881,-1.03c1.461,-4.279 2.379,-8.552 2.705,-12.817Z" style="fill:#5f8e04;"/></g></g><g><g><path d="M27.772,61.3c-1.33,-7.278 -2.079,-14.751 -2.749,-22.249l-25.023,-0l-0,17.535c-0,2.602 2.112,4.714 4.714,4.714l23.058,-0Z" style="fill:#6c3a11;"/><path d="M27.509,59.816c-1.169,-6.809 -1.861,-13.776 -2.486,-20.765l-25.023,-0l0,17.535c0,2.602 2.112,4.714 4.714,4.714l9.42,0l-0.617,-3.378c0.935,0.763 1.681,1.255 2.904,1.841c1.696,-1.136 3.271,-3.09 4.309,-4.883c1.882,2.508 4.224,3.965 6.779,4.936Z" style="fill:#50280b;"/><path d="M26.828,36.232c-0.284,7.737 -0.38,15.315 1.766,20.97c0.113,0.27 0.057,0.582 -0.142,0.797c-0.199,0.216 -0.505,0.296 -0.784,0.205c-2.748,-0.952 -5.14,-2.745 -6.995,-5.805c-1.144,1.903 -2.361,3.733 -3.873,5.267c-0.188,0.185 -0.448,0.277 -0.71,0.251c-0.263,-0.025 -0.5,-0.166 -0.648,-0.384c-1.171,-1.738 -2.164,-3.565 -3.017,-5.462c-1.375,1.744 -2.812,3.468 -4.413,5.137c-0.182,0.189 -0.446,0.275 -0.705,0.231c-0.259,-0.045 -0.479,-0.214 -0.588,-0.453c-0.897,-2.025 -1.536,-4.265 -1.967,-6.68c-1.727,1.34 -3.354,2.614 -4.752,3.735l-0,-22.446l2.69,-4.637l24.343,4.021l-0.205,5.253Z" style="fill:#a9713b;"/><path d="M17.435,56.986c-2.077,-5.343 -2.915,-11.07 -2.564,-17.166c0.452,1.111 1.042,2.084 1.75,2.938c0.17,0.199 0.418,0.316 0.68,0.32c0.262,0.005 0.513,-0.102 0.691,-0.295c1.274,-1.368 2.733,-2.797 4.215,-4.235c1.382,1.997 2.853,3.873 4.478,5.544c-0.03,-2.553 0.045,-5.197 0.143,-7.86l0.205,-5.253l-24.343,-4.021l-2.69,4.637l0,22.446c1.398,-1.121 3.025,-2.395 4.752,-3.735c0.431,2.415 1.07,4.655 1.967,6.68c0.109,0.239 0.329,0.408 0.588,0.453c0.259,0.044 0.523,-0.042 0.705,-0.231c1.601,-1.669 3.038,-3.393 4.413,-5.137c0.853,1.897 1.846,3.724 3.017,5.462c0.148,0.218 0.385,0.359 0.648,0.384c0.262,0.026 0.522,-0.066 0.71,-0.251c0.217,-0.221 0.429,-0.448 0.635,-0.68Z" style="fill:#7d5027;"/><path d="M29.742,17.52c-1.057,7.343 -2.035,14.751 -1.446,23.45c0.018,0.256 -0.105,0.501 -0.321,0.64c-0.216,0.138 -0.49,0.148 -0.715,0.026c-2.083,-1.206 -3.668,-3.134 -4.905,-5.569c-1.559,1.865 -3.118,3.565 -4.678,4.806c-0.232,0.177 -0.532,0.24 -0.817,0.172c-0.284,-0.068 -0.523,-0.26 -0.651,-0.523c-0.785,-1.638 -1.398,-3.319 -1.896,-5.029c-1.567,1.577 -3.175,3.099 -4.96,4.384c-0.23,0.163 -0.519,0.217 -0.791,0.148c-0.273,-0.068 -0.502,-0.252 -0.628,-0.504c-0.973,-2.008 -1.64,-4.219 -2.157,-6.531c-1.822,1.158 -3.736,2.453 -5.777,3.939l0,-7.386c1.795,-6.607 5.104,-13.623 7.337,-17.809l22.405,5.786Z" style="fill:#915421;"/><path d="M18.285,40.366c-1.317,-5.092 -1.706,-10.301 -1.002,-15.646c0.473,0.866 1.018,1.59 1.6,2.238c2.147,-1.616 4.146,-3.454 6.074,-5.398c0.964,2.044 2.185,3.933 3.569,5.726c0.307,-3.336 0.754,-6.557 1.216,-9.766l-22.405,-5.786c-2.233,4.186 -5.542,11.202 -7.337,17.809l0,7.386c2.041,-1.486 3.955,-2.781 5.777,-3.939c0.517,2.312 1.184,4.523 2.157,6.531c0.126,0.252 0.355,0.436 0.628,0.504c0.272,0.069 0.561,0.015 0.791,-0.148c1.785,-1.285 3.393,-2.807 4.96,-4.384c0.498,1.71 1.111,3.391 1.896,5.029c0.128,0.263 0.367,0.455 0.651,0.523c0.285,0.068 0.585,0.005 0.817,-0.172c0.203,-0.161 0.406,-0.33 0.608,-0.507Z" style="fill:#6b3b16;"/><path d="M36.389,0c-3.398,8.514 -5.749,17.132 -6.282,25.932c-0.011,0.207 -0.158,0.381 -0.36,0.427c-0.201,0.047 -0.409,-0.046 -0.509,-0.227c-1.296,-2.339 -3.723,-6.725 -3.723,-6.725c-0,0 -3.97,3.521 -5.716,5.069c-0.188,0.167 -0.445,0.234 -0.69,0.18c-0.245,-0.055 -0.45,-0.223 -0.55,-0.453c-0.874,-2.005 -2.769,-6.355 -2.769,-6.355c-0,0 -3.137,2.764 -4.824,4.25c-0.231,0.204 -0.549,0.278 -0.846,0.196c-0.297,-0.081 -0.534,-0.306 -0.629,-0.599c-0.686,-2.105 -1.949,-5.981 -1.949,-5.981c-0,0 -2.764,3.061 -4.168,4.616c-0.111,0.123 -0.288,0.164 -0.442,0.1c-0.153,-0.063 -0.25,-0.217 -0.242,-0.383c0.82,-4.168 5.666,-12.445 9.366,-20.047l24.333,0Z" style="fill:#a9713b;"/><path d="M20.524,23.834c-0.397,-5.951 0.199,-11.529 2.053,-16.636c0.656,1.325 1.313,2.436 1.969,3.324c1.902,-0.522 3.622,-1.408 5.196,-2.585c0.676,2.112 1.352,4.336 2.029,6.609c1.112,-4.891 2.698,-9.735 4.618,-14.546l-24.333,0c-3.7,7.602 -8.546,15.879 -9.366,20.047c-0.008,0.166 0.089,0.32 0.242,0.383c0.154,0.064 0.331,0.023 0.442,-0.1l4.168,-4.616l1.949,5.981c0.095,0.293 0.332,0.518 0.629,0.599c0.297,0.082 0.615,0.008 0.846,-0.196l4.824,-4.25l2.769,6.355c0.1,0.23 0.305,0.398 0.55,0.453c0.245,0.054 0.502,-0.013 0.69,-0.18l0.725,-0.642Z" style="fill:#7d5027;"/><path d="M9.688,4.704l13.242,-3.105l1.854,6.752c0.077,0.278 0.278,0.505 0.545,0.613c0.267,0.108 0.569,0.085 0.817,-0.062l8.848,-5.233c0.442,-1.226 0.908,-2.448 1.395,-3.669l-24.333,0c-0.756,1.553 -1.56,3.135 -2.368,4.704Z" style="fill:#915421;"/><path d="M26.091,0l-14.035,0c-0.756,1.553 -1.56,3.135 -2.368,4.704l13.242,-3.105l1.854,6.752c0.077,0.278 0.278,0.505 0.545,0.613c0.173,0.07 0.361,0.085 0.54,0.047c-0.234,-3.06 -0.193,-6.069 0.222,-9.011Z" style="fill:#6b3b16;"/></g><g><path d="M12.818,11.524c3.624,-3.336 7.013,-7.236 10.241,-11.524l-19.671,0l9.43,11.524Zm-9.815,-11.524l-3.003,0l0,20.221c2.446,-1.099 4.788,-2.452 7.037,-4.023l-4.034,-16.198Zm59.708,7.34c-0.546,-2.44 -1.232,-4.886 -2.057,-7.34l-29.779,0c0.003,4.638 0.793,9.308 2.196,13.847c5.858,-2.261 11.175,-3.226 16.802,-5.046l-15.44,8.935c2.618,6.694 6.507,12.989 11.071,18.34l9.901,-6.554l-7.653,9.056c2.216,2.34 4.556,4.457 6.963,6.296l1.048,-1.062l0.074,1.896c0.921,0.665 1.851,1.289 2.785,1.869c1.126,-2.552 2.084,-5.113 2.874,-7.682l-4.452,-3.51l5,1.628c1.651,-5.997 2.394,-12.039 2.239,-18.127l-10.568,-2.889l10.346,-1.02c-0.107,-1.211 -0.249,-2.423 -0.426,-3.637l-2.135,-0.747l1.691,-1.716l-4.431,-0.948l3.951,-1.589Zm30.536,-7.34l-17.586,0c5.929,3.578 12.543,6.129 20.009,7.402c-0.343,-2.72 -1.141,-5.193 -2.423,-7.402Z" style="fill:#a4c923;"/><path d="M94.025,5.125c-0.683,-2.13 -1.537,-3.869 -2.602,-5.125l-2.705,0l5.307,5.125Zm-34.097,32.199l2.116,0.689c1.651,-5.997 2.394,-12.039 2.239,-18.127l-3.707,-1.013c0.325,5.981 0.007,12.163 -0.648,18.451Zm0.469,-20.986l3.664,-0.361c-0.107,-1.211 -0.249,-2.423 -0.426,-3.637l-2.135,-0.747l1.691,-1.716l-3.816,-0.816c0.475,2.384 0.808,4.812 1.022,7.277Zm-1.093,-7.628l3.407,-1.37c-0.546,-2.44 -1.232,-4.886 -2.057,-7.34l-3.896,0c1.101,2.825 1.935,5.733 2.546,8.71Zm-0.682,38.867c1.126,-2.552 2.084,-5.113 2.874,-7.682l-1.7,-1.341c-0.331,2.989 -0.733,6 -1.174,9.023Z" style="fill:#b5de27;"/><path d="M49.873,8.801c-1.181,-3.33 -2.224,-5.966 -3.658,-8.801l-15.34,0c0.003,4.638 0.793,9.308 2.196,13.847c5.858,-2.261 11.175,-3.226 16.802,-5.046Zm5.532,20.721l-7.653,9.056c2.216,2.34 4.556,4.457 6.963,6.296l1.048,-1.062l0.074,1.896c0.921,0.665 1.851,1.289 2.785,1.869c-1.807,-7.432 -2.09,-12.451 -3.217,-18.055Zm-0,-0c-1.652,-8.427 -3.727,-15.631 -5.532,-20.721l-15.44,8.935c2.618,6.694 6.507,12.989 11.071,18.34l9.901,-6.554Zm38.059,-23.715c-2.915,-1.694 -5.597,-3.622 -8.022,-5.807l-7.174,0c4.791,2.421 9.84,4.386 15.196,5.807Zm-72.579,-5.807l-17.497,0l0.23,0.281l9.072,8.278l8.195,-8.559Zm-18.248,-0l-2.637,0l0,18.433l4.046,-2.574l-1.409,-15.859Z" style="fill:#74a106;"/><path d="M55.789,44.462l0.048,1.246c0.921,0.665 1.851,1.289 2.785,1.869c-0.968,-1.039 -1.913,-2.077 -2.833,-3.115Zm-6.437,-7.777l-1.6,1.893c2.216,2.34 4.556,4.457 6.963,6.296l0.759,-0.768c-2.183,-2.476 -4.226,-4.949 -6.122,-7.421Zm-12.158,-20.546l-2.761,1.597c2.618,6.694 6.507,12.989 11.071,18.34l2.267,-1.5c-4.512,-6.158 -8.088,-12.304 -10.577,-18.437Zm-3.947,-16.139l-2.372,0c0.003,4.638 0.793,9.308 2.196,13.847c0.974,-0.376 1.933,-0.716 2.881,-1.03c-1.461,-4.279 -2.379,-8.552 -2.705,-12.817Z" style="fill:#5f8e04;"/></g></g></g></svg>
